<?xml version="1.0" encoding="utf-8"?>
<!-- Generator: Adobe Illustrator 24.2.0, SVG Export Plug-In . SVG Version: 6.00 Build 0)  -->
<svg version="1.1" id="Calque_1" xmlns="http://www.w3.org/2000/svg" xmlns:xlink="http://www.w3.org/1999/xlink" x="0px" y="0px"
	 viewBox="0 0 595.3 841.9" style="enable-background:new 0 0 595.3 841.9;" xml:space="preserve" fill="white">
<path class="st0" d="M296.1,381.7c-4.8-2.9-10.8-3-15.7-0.3c-4.9,2.7-7.9,7.9-7.9,13.5v113.7c0,5.6,3,10.8,7.9,13.5
	c4.9,2.7,10.9,2.6,15.7-0.3l93-56.8c4.6-2.8,7.4-7.8,7.4-13.2s-2.8-10.4-7.4-13.2L296.1,381.7z"/>
<path class="st0" d="M199.1,321c30.9-26.7,71.2-42.9,115.2-42.9c97.2,0,176,78.8,176,176s-78.8,176-176,176
	c-39.7,0-76.2-13.1-105.6-35.2c-10.6-8-25.6-5.8-33.6,4.8s-5.8,25.6,4.8,33.6c37.4,28.1,84,44.8,134.4,44.8
	c123.7,0,224-100.3,224-224s-100.3-224-224-224c-57.3,0-109.6,21.5-149.2,56.9l-30.5-30.6c-6.6-6.6-15.6-10.3-25-10.3
	c-19.5,0-35.3,15.8-35.3,35.3v116.7c0,13.3,10.7,24,24,24H215c19.5,0,35.3-15.8,35.3-35.3c0-9.4-3.7-18.3-10.3-25L199.1,321
	L199.1,321z M122.3,312l62.1,62.1h-62.1V312z"/>
</svg>
