# File units = meters
mtllib fleche.mtl
g Part 1
v -0.0666764 0.0397968 0.025 
v -0.0666764 0.0397968 0 
v -0.02 0.0864732 0 
v -0.02 0.0864732 0.025 
v -0.02 -0.0935268 0 
v -0.02 -0.0935268 0.025 
v 0.02 -0.0935268 0 
v 0.02 -0.0935268 0.025 
v 0.02 0.0864732 0 
v 0.02 0.0864732 0.025 
v 0.0666764 0.0397968 0 
v 0.0666764 0.0397968 0.025 
v 0.0949607 0.0680811 0 
v 0.0949607 0.0680811 0.025 
v -6.93889e-18 0.163042 0.025 
v -0.0949607 0.0680811 0.025 
v -0.0949607 0.0680811 0 
v -6.93889e-18 0.163042 0 
vn 0.707107 -0.707107 0 
vn -1 0 0 
vn 0 -1 0 
vn 1 0 0 
vn -0.707107 -0.707107 0 
vn 0.707107 -0.707107 0 
vn 0 0 1 
vn 0 0 -1 
vn 0.707107 0.707107 0 
vn -0.707107 0.707107 0 
vn -0.707107 -0.707107 0 
usemtl 0.615686_0.811765_0.929412_0.000000_0.000000
o mesh0
f 1//1 2//1 3//1 
f 3//1 4//1 1//1 
o mesh1
f 4//2 3//2 5//2 
f 5//2 6//2 4//2 
o mesh2
f 6//3 5//3 7//3 
f 7//3 8//3 6//3 
o mesh3
f 8//4 7//4 9//4 
f 9//4 10//4 8//4 
o mesh4
f 10//5 9//5 11//5 
f 11//5 12//5 10//5 
o mesh5
f 12//6 11//6 13//6 
f 13//6 14//6 12//6 
o mesh6
f 8//7 10//7 4//7 
f 14//7 15//7 10//7 
f 10//7 15//7 4//7 
f 4//7 6//7 8//7 
f 16//7 1//7 4//7 
f 4//7 15//7 16//7 
f 10//7 12//7 14//7 
o mesh7
f 5//8 3//8 9//8 
f 17//8 18//8 3//8 
f 3//8 18//8 9//8 
f 9//8 7//8 5//8 
f 13//8 11//8 9//8 
f 9//8 18//8 13//8 
f 3//8 2//8 17//8 
o mesh8
f 14//9 13//9 18//9 
f 18//9 15//9 14//9 
o mesh9
f 15//10 18//10 17//10 
f 17//10 16//10 15//10 
o mesh10
f 16//11 17//11 2//11 
f 2//11 1//11 16//11 
